<?xml version="1.0" encoding="UTF-8"?>
<svg id="Layer_1" xmlns="http://www.w3.org/2000/svg" xmlns:xlink="http://www.w3.org/1999/xlink" version="1.1" viewBox="0 0 800 154">
  <!-- Generator: Adobe Illustrator 29.0.0, SVG Export Plug-In . SVG Version: 2.1.0 Build 186)  -->
  <defs>
    <style>
      .st0 {
        fill: #74cb80;
      }

      .st1 {
        fill: #badd8c;
      }

      .st2 {
        fill: #c6e39f;
      }

      .st3 {
        fill: url(#linear-gradient);
      }

      .st4 {
        fill: #4dbc5c;
      }

      .st5 {
        fill: #98cc52;
      }

      .st6 {
        fill: #54565a;
      }

      .st7 {
        fill: #9cdaa5;
      }
    </style>
    <linearGradient id="linear-gradient" x1="652.4" y1="66.2" x2="764.4" y2="66.2" gradientUnits="userSpaceOnUse">
      <stop offset="0" stop-color="#8cc63f"/>
      <stop offset="1" stop-color="#39b54a"/>
    </linearGradient>
  </defs>
  <path class="st6" d="M771.6,11.9h-4.3v-2.9h11.9v2.9h-4.3v16.1h-3.2V11.9ZM780.5,8.9h3.3l5.4,13.9,5.4-13.9h3.2v19h-3.2v-11.4l-4.4,11.4h-2.1l-4.4-11.4v11.4h-3.3V8.9Z"/>
  <g>
    <path class="st6" d="M6,8.7h62.1v7.8H13.8v42.7h48.1v7.8H13.8v42.7h55.9v7.8H6V8.7Z"/>
    <path class="st6" d="M80.5,117.3V39.7h7.8v12.1c1.7-4.2,4.5-7.7,8.6-10.4,4.1-2.7,8.9-4,14.5-4,9.6,0,16.6,3.1,20.9,9.2,4.3,6.1,6.4,14.8,6.4,26.2v44.5h-7.8v-44.7c0-4-.3-7.7-.9-11.1-.6-3.4-1.6-6.3-3.1-8.7-1.5-2.4-3.6-4.3-6.2-5.7-2.6-1.3-6-2-10.2-2-7.4,0-13,2.8-16.8,8.4s-5.6,13.9-5.6,24.8v39h-7.8Z"/>
    <path class="st6" d="M148.8,16.1c0-5.2,2.6-7.8,7.8-7.8s7.8,2.6,7.8,7.8-2.6,7.8-7.8,7.8-7.8-2.6-7.8-7.8ZM152.7,39.7h7.8v77.6h-7.8V39.7Z"/>
    <path class="st6" d="M173.8,64.6c0-5.3.8-9.6,2.3-13.1,1.6-3.5,3.7-6.2,6.6-8.3,2.8-2.1,6.2-3.5,10.2-4.4,3.9-.9,8.3-1.3,13-1.3.5-5.8,2.3-10.6,5.2-14.4,2.9-3.8,7-5.7,12.2-5.7s5.7.4,8.1,1.3c2.4.9,4.7,1.9,6.8,3v7.8c-2.1-1.4-4.4-2.5-6.9-3.3-2.5-.7-5-1.1-7.4-1.1s-2.2.2-3.5.6c-1.3.4-2.5,1.1-3.6,2.1-1.1,1-2.1,2.3-2.9,4-.9,1.7-1.5,3.8-1.8,6.3,15.1,2.2,22.7,11,22.7,26.5s-2.3,15.9-7,20.4-12.1,6.8-22.3,6.8-9.2,0-12.3.2c-3.2.1-5.6.4-7.4.8-1.8.4-3.1,1.1-3.7,2-.7.9-1,2.2-1,3.7s.5,2.5,1.4,3.3c.9.9,2.4,1.6,4.5,2.2,2.1.6,4.8,1.2,8.1,1.6,3.4.5,7.5,1,12.3,1.6,4.7.5,8.9,1,12.8,1.5s7.2,1.3,10,2.6c2.8,1.2,4.9,3.1,6.4,5.7,1.5,2.5,2.3,6.2,2.3,10.9,0,7.7-2.5,13.2-7.6,16.8-5.1,3.5-13,5.3-23.7,5.3s-11.7-.5-16.1-1.6c-4.4-1.1-8-2.8-10.7-5.1-2.7-2.3-4.7-5.3-6-8.9-1.2-3.6-1.9-8-1.9-13h7.8c0,3.9.5,7.2,1.6,9.9,1,2.7,2.6,4.9,4.7,6.5,2.1,1.7,4.8,2.8,8,3.5,3.2.7,6.9,1,11.2,1s6.8-.2,9.9-.5c3.1-.4,5.7-1.1,7.9-2.1,2.2-1,4-2.5,5.3-4.3,1.3-1.9,1.9-4.2,1.9-7.1s-.6-5.5-1.8-7c-1.2-1.4-2.9-2.5-5.2-3-2.3-.6-5.1-.9-8.5-1.1s-7.3-.6-11.6-1.3c-3.6-.6-7.3-1.1-10.9-1.6-3.7-.4-7-1.1-9.9-2.1-2.9-1-5.3-2.5-7.1-4.4-1.8-2-2.7-4.8-2.7-8.5s.8-7.1,2.4-9.2c1.6-2.1,4-3.5,7.2-4.3-6-4.6-9-11.5-9-21ZM182.3,64.4c0,6.9,2.1,11.9,6.2,15,4.1,3.1,9.7,4.6,16.6,4.6s12.7-1.5,16.1-4.6c3.4-3.1,5-8,5-15s-1.9-11.7-5.7-14.7c-3.8-3-9.3-4.5-16.5-4.5s-13.8,1.5-17,4.6c-3.2,3.1-4.7,7.9-4.7,14.7Z"/>
    <path class="st6" d="M289.2,117.3v-50.7c0-2.5-.2-5-.6-7.5-.4-2.5-1.1-4.8-2.2-6.9-1-2.1-2.5-3.7-4.3-5-1.9-1.3-4.2-1.9-7.1-1.9-5.4,0-9.4,2.8-12,8.4s-4,13.9-4,24.8v39h-7.8V39.7h7.8v12.1c1.2-4.7,3.2-8.2,5.7-10.7,2.6-2.5,6.3-3.7,11-3.7s8.8,1.4,12,4.3c3.1,2.9,5.4,6.3,6.8,10.1.6-1.8,1.4-3.5,2.5-5.2,1-1.7,2.3-3.3,3.7-4.7,1.4-1.4,3.2-2.5,5.1-3.3,2-.8,4.2-1.2,6.8-1.2,7.9,0,13.6,3,17.1,9.1,3.5,6.1,5.3,14.8,5.3,26.3v44.5h-7.8v-44.7c0-4-.2-7.7-.5-11.1-.4-3.4-1.1-6.3-2.2-8.7-1.1-2.4-2.6-4.3-4.4-5.7-1.9-1.3-4.3-2-7.3-2s-4.9.6-6.9,1.9c-2,1.3-3.7,3-5,5-1.3,2.1-2.3,4.4-2.9,7-.7,2.6-1,5.1-1,7.6v50.6h-7.8Z"/>
    <path class="st6" d="M396.3,104.9c-.7,1.8-1.7,3.5-2.9,5.3-1.2,1.8-2.9,3.3-4.9,4.7-2,1.4-4.5,2.5-7.4,3.4-2.9.9-6.4,1.3-10.5,1.3s-7.3-.4-10.6-1.1c-3.2-.7-6-2-8.3-3.8-2.3-1.8-4.1-4.2-5.4-7.2-1.3-3-1.9-6.7-1.9-11.2,0-7.2,2.4-12.9,7.1-17,4.8-4.1,12.5-7,23.3-8.6l21.6-3.3v-.5c0-5.2-.7-9.2-2-12.1-1.3-2.9-3-5.1-5-6.5-2-1.4-4.2-2.4-6.6-2.7-2.4-.4-4.6-.5-6.7-.5s-4.6.2-6.9.5c-2.3.4-4.4,1.2-6.4,2.6-1.9,1.4-3.5,3.5-4.7,6.4-1.2,2.9-1.8,6.8-1.8,11.8h-7.8c0-10.1,2.4-17.5,7.2-22.2,4.8-4.7,11.4-7,19.8-7s16.9,2.5,21.6,7.6c4.7,5.1,7,12.5,7,22.2v50.1h-7.8v-12.4ZM396.3,74.7l-21.6,3.3c-2.7.4-5.3,1-7.9,1.9-2.6.8-4.9,2-7,3.4-2.1,1.4-3.8,3.3-5,5.4-1.3,2.2-1.9,4.8-1.9,7.8s.3,4.2.8,6.1c.5,1.9,1.5,3.5,2.9,4.9,1.4,1.4,3.5,2.5,6.1,3.3,2.6.8,6.1,1.2,10.5,1.2s7.3-.9,10.2-2.6c2.8-1.8,5.2-4,7.2-6.6,2-2.6,3.4-5.5,4.3-8.6.9-3.1,1.4-5.9,1.4-8.5v-10.9Z"/>
    <path class="st6" d="M452,119.7c-12.9,0-22.3-4.7-28.2-14-5.9-9.3-8.8-23.6-8.8-42.8s2.8-33.3,8.3-42.6c5.5-9.3,14.3-13.9,26.3-13.9s10.4.7,14.7,2.2c4.3,1.4,7.9,3.8,10.9,7,2.9,3.2,5.2,7.3,6.8,12.4,1.6,5.1,2.3,11.2,2.3,18.5h-14.4c0-5.5-.6-9.9-1.8-13.3-1.2-3.4-2.7-6-4.7-7.8-1.9-1.9-4.1-3.1-6.4-3.7-2.4-.6-4.8-.9-7.1-.9-7.1,0-12.1,3.3-14.8,10-2.7,6.7-4.1,17.4-4.1,32s1.8,25.9,5.4,32.6c3.6,6.7,9.2,10.1,16.8,10.1s4.1-.3,6.1-.9c2-.6,3.9-1.7,5.6-3.4s3.1-4.2,4.1-7.4c1-3.2,1.6-7.4,1.6-12.7h14.4c0,7.2-.8,13.3-2.3,18.2-1.6,4.9-3.8,8.9-6.6,11.9-2.8,3-6.3,5.2-10.3,6.5-4,1.3-8.5,2-13.5,2Z"/>
    <path class="st6" d="M495.6,8.7h64.1v14h-49v33.4h42.8v14h-42.8v33.4h50.6v14h-65.6V8.7Z"/>
    <path class="st6" d="M572.2,8.7h27.3c7.9,0,14.5.7,20,2.1,5.5,1.4,10,3.5,13.4,6.3,3.5,2.8,6,6.2,7.5,10.3,1.6,4.1,2.3,8.9,2.3,14.4,0,10.7-2.7,18.6-8.1,23.8-5.4,5.2-13.3,7.8-23.7,7.8h-1.6l32.4,43.9h-16.9l-30.7-42.4h-7v42.4h-15.1V8.7ZM599.6,61c9.4,0,16.3-1.6,20.7-4.8,4.4-3.2,6.6-8,6.6-14.4s-2.2-11.2-6.6-14.4c-4.4-3.2-11.3-4.7-20.7-4.7h-12.4v38.3h12.4Z"/>
  </g>
  <path class="st3" d="M652.4,86.1l23.4-9.5c3.9,8.9,11.6,16.1,21,18.8,23.1,6.7,45.3-12.7,41.7-36.4-1.7-11.2-9.4-20.8-19.8-25.3l9.5-23.4c7.9,3,15.3,8.3,21,14.6,23.4,25.7,19,66.2-9.1,86.4-25.5,18.3-60.8,13.2-80-11.5-3.2-4.1-6-8.8-7.8-13.6Z"/>
  <path class="st2" d="M678.2,46.7l-2.1,4.5-.5.2-23.1-9.8c1.1-2.6,2.4-5.3,3.9-7.7s0-.3.3-.2l21.6,13.1Z"/>
  <polygon class="st1" points="674.3 56.2 673.5 61.5 648.1 59.3 649.5 50.4 674.3 56.2"/>
  <path class="st7" d="M684,10.3l9.5,23.5-4.4,2.2-13.3-21.6c0-.4,0-.2.2-.3.9-.6,7.5-4.2,8-3.9Z"/>
  <polygon class="st0" points="701.5 6 703.6 31.4 698.4 32.1 692.6 7.3 701.5 6"/>
  <path class="st4" d="M719.7,7.3l-5.8,24.8c-1.7-.3-3.5-.8-5.2-.7l2.1-25.4,8.9,1.3Z"/>
  <polygon class="st5" points="673.5 66.5 674.3 71.7 649.4 77.5 648.1 68.6 673.5 66.5"/>
</svg>